# xmcd
#
# Track frame offsets: 
#        150
#        13800
#        38265
#        61330
#        73382
#        97162
#        124832
#        141032
#        164290
#        189852
#        202220
#        225142
#        246835
#        264305
#
# Disc length: 3884 seconds
#
# Revision: 2
# Processed by: cddbd v1.5.1PL0 Copyright (c) Steve Scherf et al.
# Submitted via: ExactAudioCopy v0.95a5
#
DISCID=bf0f2a0e
DTITLE=Isabel Pantoja - Mis mejores canciones
DYEAR=1994
DGENRE=Balada
TTITLE0=Marinero de luces
TTITLE1=Así fue
TTITLE2=Si te recuerdo
TTITLE3=Nada
TTITLE4=Porque me gusta a morir
TTITLE5=Hazme tuya una vez más
TTITLE6=Cambiar por ti
TTITLE7=Se me enamora el alma
TTITLE8=Buenos días tristeza
TTITLE9=Feriante
TTITLE10=Desde que vivo con otro
TTITLE11=Hoy quiero confesarme
TTITLE12=Era mi vida él
TTITLE13=Virgen del Rocío
EXTD=
EXTT0=
EXTT1=
EXTT2=
EXTT3=
EXTT4=
EXTT5=
EXTT6=
EXTT7=
EXTT8=
EXTT9=
EXTT10=
EXTT11=
EXTT12=
EXTT13=
PLAYORDER=
